# xmcd CD database file
#
# Track frame offsets:
#	150
#	14937
#	30330
#	49196
#	68176
#	81990
#	95473
#	113254
#	127371
#	145763
#
# Disc length: 2165 seconds
#
# Revision: 1
# Processed by: cddbd v1.5.2PL0 Copyright (c) Steve Scherf et al.
# Submitted via: CDex 1.51
#
DISCID=8808730a
DTITLE=The Blues Brothers -  Best Of The Blues Brothers
DYEAR=1981
DGENRE=Blues
TTITLE0=Expressway To Your Heart
TTITLE1=Everybody Needs Somebody To Love
TTITLE2=I Don't Know
TTITLE3=She Caught The Katy
TTITLE4=Soul Man
TTITLE5=Rubber Biscuit
TTITLE6=Goin' Back To Miami
TTITLE7=Gimme Some Lovin'
TTITLE8="B" Movie Box Car Blues
TTITLE9=Flip,Flop and Fly
EXTD=YEAR: 1981
EXTT0=
EXTT1=
EXTT2=
EXTT3=
EXTT4=
EXTT5=
EXTT6=
EXTT7=
EXTT8=
EXTT9=
PLAYORDER=
